<?xml version="1.0" encoding="utf-8"?>
<!-- Generator: Adobe Illustrator 24.1.2, SVG Export Plug-In . SVG Version: 6.00 Build 0)  -->
<svg version="1.1" id="Capa_1" xmlns="http://www.w3.org/2000/svg" xmlns:xlink="http://www.w3.org/1999/xlink" x="0px" y="0px"
	 viewBox="0 0 612 389.61" style="enable-background:new 0 0 612 389.61;" xml:space="preserve">
<style type="text/css">
	.st0{fill:url(#SVGID_1_);}
	.st1{fill:url(#SVGID_2_);}
	.st2{fill:url(#SVGID_3_);}
	.st3{fill:url(#SVGID_4_);}
	.st4{fill:url(#SVGID_5_);}
	.st5{fill:url(#SVGID_6_);}
	.st6{fill:url(#SVGID_7_);}
	.st7{fill:url(#SVGID_8_);}
	.st8{fill:url(#SVGID_9_);}
	.st9{fill:url(#SVGID_10_);}
	.st10{fill:url(#SVGID_11_);}
	.st11{fill:url(#SVGID_12_);}
	.st12{fill:url(#SVGID_13_);}
	.st13{fill:url(#SVGID_14_);}
	.st14{fill:url(#SVGID_15_);}
	.st15{fill:url(#SVGID_16_);}
	.st16{fill:url(#SVGID_17_);}
	.st17{fill:url(#SVGID_18_);}
	.st18{fill:url(#SVGID_19_);}
	.st19{fill:url(#SVGID_20_);}
	.st20{fill:url(#SVGID_21_);}
	.st21{fill:url(#SVGID_22_);}
	.st22{fill:url(#SVGID_23_);}
	.st23{fill:url(#SVGID_24_);}
	.st24{fill:url(#SVGID_25_);}
	.st25{fill:url(#SVGID_26_);}
	.st26{fill:url(#SVGID_27_);}
	.st27{fill:url(#SVGID_28_);}
	.st28{fill:url(#SVGID_29_);}
	.st29{fill:url(#SVGID_30_);}
	.st30{fill:url(#SVGID_31_);}
	.st31{fill:url(#SVGID_32_);}
	.st32{fill:url(#SVGID_33_);}
	.st33{fill:url(#SVGID_34_);}
	.st34{fill:url(#SVGID_35_);}
	.st35{fill:url(#SVGID_36_);}
	.st36{fill:url(#SVGID_37_);}
	.st37{fill:url(#SVGID_38_);}
	.st38{fill:url(#SVGID_39_);}
	.st39{fill:url(#SVGID_40_);}
	.st40{fill:url(#SVGID_41_);}
	.st41{fill:url(#SVGID_42_);}
	.st42{fill:url(#SVGID_43_);}
	.st43{fill:url(#SVGID_44_);}
	.st44{fill:url(#SVGID_45_);}
	.st45{fill:url(#SVGID_46_);}
	.st46{fill:#2D2D2C;}
</style>
<g>
	<g>
		<linearGradient id="SVGID_1_" gradientUnits="userSpaceOnUse" x1="354.7482" y1="37.896" x2="367.4932" y2="211.2268">
			<stop  offset="0" style="stop-color:#E83A5A"/>
			<stop  offset="1" style="stop-color:#B82146"/>
		</linearGradient>
		<path class="st0" d="M275.42,16.51c0,0,48.94,0,71.2,0c25.5,0,96.21,24.05,96.21,107.22c0,90.49-69.99,106.36-101.98,106.36
			c-6.49,0-25.98,0-25.98,0v-49.07c0,0,18.77,0.32,25.01,0c19.55-1.01,52.43-8.9,52.92-57.73c0.4-40.89-30.46-54.39-49.07-56.76
			c-10.96-1.4-44.21,0-44.21,0v9.62h-24.1V16.51z"/>
		<linearGradient id="SVGID_2_" gradientUnits="userSpaceOnUse" x1="175.7739" y1="51.0559" x2="188.5188" y2="224.3867">
			<stop  offset="0" style="stop-color:#E83A5A"/>
			<stop  offset="1" style="stop-color:#B82146"/>
		</linearGradient>
		<rect x="167.66" y="16.51" class="st1" width="12.03" height="12.03"/>
		<linearGradient id="SVGID_3_" gradientUnits="userSpaceOnUse" x1="185.1144" y1="50.369" x2="197.8593" y2="223.6999">
			<stop  offset="0" style="stop-color:#E83A5A"/>
			<stop  offset="1" style="stop-color:#B82146"/>
		</linearGradient>
		<rect x="179.69" y="52.35" class="st2" width="12.03" height="12.03"/>
		<linearGradient id="SVGID_4_" gradientUnits="userSpaceOnUse" x1="198.8174" y1="49.3615" x2="211.5623" y2="222.6923">
			<stop  offset="0" style="stop-color:#E83A5A"/>
			<stop  offset="1" style="stop-color:#B82146"/>
		</linearGradient>
		<rect x="191.72" y="28.54" class="st3" width="12.03" height="12.03"/>
		<linearGradient id="SVGID_5_" gradientUnits="userSpaceOnUse" x1="221.8785" y1="47.6658" x2="234.6234" y2="220.9967">
			<stop  offset="0" style="stop-color:#E83A5A"/>
			<stop  offset="1" style="stop-color:#B82146"/>
		</linearGradient>
		<rect x="215.77" y="40.32" class="st4" width="12.03" height="12.03"/>
		<linearGradient id="SVGID_6_" gradientUnits="userSpaceOnUse" x1="232.7213" y1="46.8685" x2="245.4662" y2="220.1994">
			<stop  offset="0" style="stop-color:#E83A5A"/>
			<stop  offset="1" style="stop-color:#B82146"/>
		</linearGradient>
		<rect x="227.55" y="52.35" class="st5" width="12.03" height="12.03"/>
		<linearGradient id="SVGID_7_" gradientUnits="userSpaceOnUse" x1="270.3473" y1="44.1019" x2="283.0922" y2="217.4328">
			<stop  offset="0" style="stop-color:#E83A5A"/>
			<stop  offset="1" style="stop-color:#B82146"/>
		</linearGradient>
		<rect x="263.63" y="28.54" class="st6" width="12.03" height="12.03"/>
		<linearGradient id="SVGID_8_" gradientUnits="userSpaceOnUse" x1="209.0374" y1="48.61" x2="221.7824" y2="221.9409">
			<stop  offset="0" style="stop-color:#E83A5A"/>
			<stop  offset="1" style="stop-color:#B82146"/>
		</linearGradient>
		<rect x="203.74" y="52.35" class="st7" width="12.03" height="12.03"/>
		<linearGradient id="SVGID_9_" gradientUnits="userSpaceOnUse" x1="196.1964" y1="49.5542" x2="208.9413" y2="222.8851">
			<stop  offset="0" style="stop-color:#E83A5A"/>
			<stop  offset="1" style="stop-color:#B82146"/>
		</linearGradient>
		<rect x="191.72" y="64.38" class="st8" width="12.03" height="12.03"/>
		<linearGradient id="SVGID_10_" gradientUnits="userSpaceOnUse" x1="205.5369" y1="48.8674" x2="218.2819" y2="222.1983">
			<stop  offset="0" style="stop-color:#E83A5A"/>
			<stop  offset="1" style="stop-color:#B82146"/>
		</linearGradient>
		<rect x="203.74" y="100.21" class="st9" width="12.03" height="12.03"/>
		<linearGradient id="SVGID_11_" gradientUnits="userSpaceOnUse" x1="214.8599" y1="48.1819" x2="227.6048" y2="221.5127">
			<stop  offset="0" style="stop-color:#E83A5A"/>
			<stop  offset="1" style="stop-color:#B82146"/>
		</linearGradient>
		<rect x="215.77" y="136.29" class="st10" width="12.03" height="12.03"/>
		<linearGradient id="SVGID_12_" gradientUnits="userSpaceOnUse" x1="252.1447" y1="45.4404" x2="264.8896" y2="218.7712">
			<stop  offset="0" style="stop-color:#E83A5A"/>
			<stop  offset="1" style="stop-color:#B82146"/>
		</linearGradient>
		<rect x="251.49" y="112.24" class="st11" width="12.03" height="12.03"/>
		<linearGradient id="SVGID_13_" gradientUnits="userSpaceOnUse" x1="263.3463" y1="44.6167" x2="276.0912" y2="217.9476">
			<stop  offset="0" style="stop-color:#E83A5A"/>
			<stop  offset="1" style="stop-color:#B82146"/>
		</linearGradient>
		<rect x="263.63" y="124.27" class="st12" width="12.03" height="12.03"/>
		<linearGradient id="SVGID_14_" gradientUnits="userSpaceOnUse" x1="239.4232" y1="46.3758" x2="252.1681" y2="219.7066">
			<stop  offset="0" style="stop-color:#E83A5A"/>
			<stop  offset="1" style="stop-color:#B82146"/>
		</linearGradient>
		<rect x="239.58" y="124.27" class="st13" width="12.03" height="12.03"/>
		<linearGradient id="SVGID_15_" gradientUnits="userSpaceOnUse" x1="275.9736" y1="43.6882" x2="288.7185" y2="217.0191">
			<stop  offset="0" style="stop-color:#E83A5A"/>
			<stop  offset="1" style="stop-color:#B82146"/>
		</linearGradient>
		<rect x="275.44" y="112.24" class="st14" width="12.03" height="12.03"/>
		<linearGradient id="SVGID_16_" gradientUnits="userSpaceOnUse" x1="250.5052" y1="45.5609" x2="263.2501" y2="218.8918">
			<stop  offset="0" style="stop-color:#E83A5A"/>
			<stop  offset="1" style="stop-color:#B82146"/>
		</linearGradient>
		<rect x="251.61" y="136.29" class="st15" width="12.03" height="12.03"/>
		<linearGradient id="SVGID_17_" gradientUnits="userSpaceOnUse" x1="287.0556" y1="42.8734" x2="299.8005" y2="216.2042">
			<stop  offset="0" style="stop-color:#E83A5A"/>
			<stop  offset="1" style="stop-color:#B82146"/>
		</linearGradient>
		<rect x="287.47" y="124.27" class="st16" width="12.03" height="12.03"/>
		<linearGradient id="SVGID_18_" gradientUnits="userSpaceOnUse" x1="265.1053" y1="44.4874" x2="277.8502" y2="217.8182">
			<stop  offset="0" style="stop-color:#E83A5A"/>
			<stop  offset="1" style="stop-color:#B82146"/>
		</linearGradient>
		<rect x="263.63" y="100.21" class="st17" width="12.03" height="12.03"/>
		<linearGradient id="SVGID_19_" gradientUnits="userSpaceOnUse" x1="213.1184" y1="48.3099" x2="225.8633" y2="221.6408">
			<stop  offset="0" style="stop-color:#E83A5A"/>
			<stop  offset="1" style="stop-color:#B82146"/>
		</linearGradient>
		<rect x="215.77" y="160.11" class="st18" width="12.03" height="12.03"/>
		<linearGradient id="SVGID_20_" gradientUnits="userSpaceOnUse" x1="203.8168" y1="48.9939" x2="216.5617" y2="222.3247">
			<stop  offset="0" style="stop-color:#E83A5A"/>
			<stop  offset="1" style="stop-color:#B82146"/>
		</linearGradient>
		<rect x="203.74" y="123.74" class="st19" width="12.03" height="12.03"/>
		<linearGradient id="SVGID_21_" gradientUnits="userSpaceOnUse" x1="225.7027" y1="47.3846" x2="238.4476" y2="220.7155">
			<stop  offset="0" style="stop-color:#E83A5A"/>
			<stop  offset="1" style="stop-color:#B82146"/>
		</linearGradient>
		<rect x="227.55" y="148.32" class="st20" width="12.03" height="12.03"/>
		<linearGradient id="SVGID_22_" gradientUnits="userSpaceOnUse" x1="245.2457" y1="45.9476" x2="257.9906" y2="219.2785">
			<stop  offset="0" style="stop-color:#E83A5A"/>
			<stop  offset="1" style="stop-color:#B82146"/>
		</linearGradient>
		<rect x="251.61" y="208.21" class="st21" width="12.03" height="12.03"/>
		<linearGradient id="SVGID_23_" gradientUnits="userSpaceOnUse" x1="234.1813" y1="46.7612" x2="246.9262" y2="220.0921">
			<stop  offset="0" style="stop-color:#E83A5A"/>
			<stop  offset="1" style="stop-color:#B82146"/>
		</linearGradient>
		<rect x="239.58" y="195.94" class="st22" width="12.03" height="12.03"/>
		<linearGradient id="SVGID_24_" gradientUnits="userSpaceOnUse" x1="256.3277" y1="45.1328" x2="269.0726" y2="218.4636">
			<stop  offset="0" style="stop-color:#E83A5A"/>
			<stop  offset="1" style="stop-color:#B82146"/>
		</linearGradient>
		<rect x="263.63" y="220.24" class="st23" width="12.03" height="12.03"/>
		<linearGradient id="SVGID_25_" gradientUnits="userSpaceOnUse" x1="248.6441" y1="45.6977" x2="261.3891" y2="219.0286">
			<stop  offset="0" style="stop-color:#E83A5A"/>
			<stop  offset="1" style="stop-color:#B82146"/>
		</linearGradient>
		<rect x="251.49" y="160.11" class="st24" width="12.03" height="12.03"/>
		<linearGradient id="SVGID_26_" gradientUnits="userSpaceOnUse" x1="317.8101" y1="40.612" x2="330.555" y2="213.9429">
			<stop  offset="0" style="stop-color:#E83A5A"/>
			<stop  offset="1" style="stop-color:#B82146"/>
		</linearGradient>
		<rect x="318.35" y="123.74" class="st25" width="12.03" height="12.03"/>
		<linearGradient id="SVGID_27_" gradientUnits="userSpaceOnUse" x1="298.1631" y1="42.0566" x2="310.9081" y2="215.3875">
			<stop  offset="0" style="stop-color:#E83A5A"/>
			<stop  offset="1" style="stop-color:#B82146"/>
		</linearGradient>
		<rect x="299.52" y="136.29" class="st26" width="12.03" height="12.03"/>
		<linearGradient id="SVGID_28_" gradientUnits="userSpaceOnUse" x1="302.6033" y1="41.7302" x2="315.3482" y2="215.061">
			<stop  offset="0" style="stop-color:#E83A5A"/>
			<stop  offset="1" style="stop-color:#B82146"/>
		</linearGradient>
		<rect x="299.52" y="75.58" class="st27" width="12.03" height="12.03"/>
		<linearGradient id="SVGID_29_" gradientUnits="userSpaceOnUse" x1="299.6002" y1="41.951" x2="312.3452" y2="215.2818">
			<stop  offset="0" style="stop-color:#E83A5A"/>
			<stop  offset="1" style="stop-color:#B82146"/>
		</linearGradient>
		<rect x="303.32" y="168.28" class="st28" width="12.03" height="12.03"/>
		<linearGradient id="SVGID_30_" gradientUnits="userSpaceOnUse" x1="344.5298" y1="38.6473" x2="357.2747" y2="211.9782">
			<stop  offset="0" style="stop-color:#E83A5A"/>
			<stop  offset="1" style="stop-color:#B82146"/>
		</linearGradient>
		<rect x="343.49" y="100.21" class="st29" width="12.03" height="12.03"/>
		<linearGradient id="SVGID_31_" gradientUnits="userSpaceOnUse" x1="246.8851" y1="45.8271" x2="259.63" y2="219.1579">
			<stop  offset="0" style="stop-color:#E83A5A"/>
			<stop  offset="1" style="stop-color:#B82146"/>
		</linearGradient>
		<rect x="251.49" y="184.16" class="st30" width="12.03" height="12.03"/>
		<linearGradient id="SVGID_32_" gradientUnits="userSpaceOnUse" x1="229.942" y1="47.0729" x2="242.6869" y2="220.4038">
			<stop  offset="0" style="stop-color:#E83A5A"/>
			<stop  offset="1" style="stop-color:#B82146"/>
		</linearGradient>
		<rect x="227.55" y="172.13" class="st31" width="24.05" height="12.03"/>
		<linearGradient id="SVGID_33_" gradientUnits="userSpaceOnUse" x1="273.456" y1="43.8733" x2="286.2009" y2="217.2042">
			<stop  offset="0" style="stop-color:#E83A5A"/>
			<stop  offset="1" style="stop-color:#B82146"/>
		</linearGradient>
		<polygon class="st32" points="287.58,148.13 287.58,136.49 275.55,136.49 275.55,148.13 263.5,148.13 263.5,160.15 275.55,160.15 
			275.55,172.18 287.58,172.18 287.58,160.15 299.63,160.15 299.63,148.13 		"/>
		<linearGradient id="SVGID_34_" gradientUnits="userSpaceOnUse" x1="182.4934" y1="50.5618" x2="195.2383" y2="223.8926">
			<stop  offset="0" style="stop-color:#E83A5A"/>
			<stop  offset="1" style="stop-color:#B82146"/>
		</linearGradient>
		<rect x="179.69" y="88.19" class="st33" width="12.03" height="12.03"/>
		<linearGradient id="SVGID_35_" gradientUnits="userSpaceOnUse" x1="192.7663" y1="49.8064" x2="205.5112" y2="223.1373">
			<stop  offset="0" style="stop-color:#E83A5A"/>
			<stop  offset="1" style="stop-color:#B82146"/>
		</linearGradient>
		<rect x="191.72" y="111.28" class="st34" width="12.03" height="12.03"/>
		<linearGradient id="SVGID_36_" gradientUnits="userSpaceOnUse" x1="241.6197" y1="46.2142" x2="254.3646" y2="219.5451">
			<stop  offset="0" style="stop-color:#E83A5A"/>
			<stop  offset="1" style="stop-color:#B82146"/>
		</linearGradient>
		<rect x="229.92" y="28.54" class="st35" width="21.69" height="12.03"/>
		<linearGradient id="SVGID_37_" gradientUnits="userSpaceOnUse" x1="249.0992" y1="45.6643" x2="261.8441" y2="218.9951">
			<stop  offset="0" style="stop-color:#E83A5A"/>
			<stop  offset="1" style="stop-color:#B82146"/>
		</linearGradient>
		<rect x="241.82" y="88.19" class="st36" width="21.69" height="12.03"/>
		<linearGradient id="SVGID_38_" gradientUnits="userSpaceOnUse" x1="243.8033" y1="46.0537" x2="256.5482" y2="219.3846">
			<stop  offset="0" style="stop-color:#E83A5A"/>
			<stop  offset="1" style="stop-color:#B82146"/>
		</linearGradient>
		<rect x="239.58" y="64.38" class="st37" width="12.03" height="12.03"/>
		<linearGradient id="SVGID_39_" gradientUnits="userSpaceOnUse" x1="221.3531" y1="47.7044" x2="234.098" y2="221.0353">
			<stop  offset="0" style="stop-color:#E83A5A"/>
			<stop  offset="1" style="stop-color:#B82146"/>
		</linearGradient>
		<rect x="217.89" y="76.4" class="st38" width="12.03" height="12.03"/>
		<linearGradient id="SVGID_40_" gradientUnits="userSpaceOnUse" x1="262.6251" y1="44.6697" x2="275.37" y2="218.0006">
			<stop  offset="0" style="stop-color:#E83A5A"/>
			<stop  offset="1" style="stop-color:#B82146"/>
		</linearGradient>
		<polygon class="st39" points="263.63,52.35 263.63,40.32 251.61,40.32 251.61,64.38 263.63,64.38 275.66,64.38 275.66,52.35 		"/>
		<linearGradient id="SVGID_41_" gradientUnits="userSpaceOnUse" x1="229.0906" y1="47.1355" x2="241.8355" y2="220.4664">
			<stop  offset="0" style="stop-color:#E83A5A"/>
			<stop  offset="1" style="stop-color:#B82146"/>
		</linearGradient>
		<rect x="227.79" y="99.25" class="st40" width="12.03" height="24.05"/>
		<linearGradient id="SVGID_42_" gradientUnits="userSpaceOnUse" x1="278.3216" y1="43.5156" x2="291.0665" y2="216.8465">
			<stop  offset="0" style="stop-color:#E83A5A"/>
			<stop  offset="1" style="stop-color:#B82146"/>
		</linearGradient>
		<polygon class="st41" points="287.47,87.07 287.47,76.12 275.66,76.12 263.63,76.12 263.63,88.15 275.44,88.15 275.44,100.06 
			287.47,100.06 287.47,111.12 299.5,111.12 299.5,87.07 		"/>
		<linearGradient id="SVGID_43_" gradientUnits="userSpaceOnUse" x1="270.7229" y1="44.0743" x2="283.4678" y2="217.4052">
			<stop  offset="0" style="stop-color:#E83A5A"/>
			<stop  offset="1" style="stop-color:#B82146"/>
		</linearGradient>
		<polygon class="st42" points="263.39,172.13 263.39,184.16 287.5,184.16 287.5,195.94 263.39,195.94 263.39,207.97 287.5,207.97 
			287.5,230.1 299.52,230.1 299.52,207.97 299.52,195.94 299.52,184.16 299.52,178.14 299.52,172.13 		"/>
		<linearGradient id="SVGID_44_" gradientUnits="userSpaceOnUse" x1="259.2653" y1="44.9168" x2="272.0102" y2="218.2476">
			<stop  offset="0" style="stop-color:#E83A5A"/>
			<stop  offset="1" style="stop-color:#B82146"/>
		</linearGradient>
		<rect x="251.61" y="16.51" class="st43" width="12.03" height="12.03"/>
		<linearGradient id="SVGID_45_" gradientUnits="userSpaceOnUse" x1="162.0709" y1="52.0634" x2="174.8158" y2="225.3943">
			<stop  offset="0" style="stop-color:#E83A5A"/>
			<stop  offset="1" style="stop-color:#B82146"/>
		</linearGradient>
		<rect x="155.64" y="40.32" class="st44" width="12.03" height="12.03"/>
		<linearGradient id="SVGID_46_" gradientUnits="userSpaceOnUse" x1="223.6199" y1="47.5378" x2="236.3649" y2="220.8686">
			<stop  offset="0" style="stop-color:#E83A5A"/>
			<stop  offset="1" style="stop-color:#B82146"/>
		</linearGradient>
		<rect x="215.77" y="16.51" class="st45" width="12.03" height="12.03"/>
	</g>
	<g>
		<path class="st46" d="M116.23,316.76v-35.94h7.45c5.38,0,9.28,0.43,11.7,1.29c3.49,1.22,6.21,3.34,8.17,6.35
			c1.96,3.01,2.94,6.61,2.94,10.77c0,3.6-0.78,6.77-2.33,9.5c-1.56,2.74-3.58,4.76-6.06,6.06c-2.48,1.3-5.97,1.95-10.44,1.95H116.23
			z M119.68,313.37h4.15c4.97,0,8.41-0.31,10.33-0.93c2.7-0.88,4.83-2.46,6.38-4.75c1.55-2.29,2.32-5.08,2.32-8.39
			c0-3.47-0.84-6.43-2.52-8.88c-1.68-2.46-4.02-4.14-7.01-5.05c-2.25-0.68-5.95-1.03-11.12-1.03h-2.54V313.37z"/>
		<path class="st46" d="M153.04,280.83h20.6v3.52h-17v11.26h16.86v3.52h-16.86v14.12h16.86v3.52h-20.45V280.83z"/>
		<path class="st46" d="M177.5,280.83h4.2l8.6,13.98l8.65-13.98h4.14l-10.72,17.37l11.43,18.57h-4.2l-9.33-15.17l-9.36,15.17h-4.2
			l11.48-18.55L177.5,280.83z"/>
		<path class="st46" d="M205.84,284.34v-3.52h19.69v3.52h-8.01v32.42h-3.66v-32.42H205.84z"/>
		<path class="st46" d="M230.29,280.83h20.6v3.52h-17v11.26h16.86v3.52h-16.86v14.12h16.86v3.52h-20.45V280.83z"/>
		<path class="st46" d="M256.83,280.83h7.16c3.99,0,6.69,0.16,8.11,0.49c2.13,0.49,3.87,1.54,5.2,3.14s2,3.58,2,5.93
			c0,1.96-0.46,3.68-1.38,5.16s-2.24,2.61-3.95,3.36c-1.71,0.76-4.07,1.15-7.09,1.16l12.92,16.69h-4.44l-12.93-16.69h-2.03v16.69
			h-3.59V280.83z M260.42,284.34v12.22l6.19,0.05c2.4,0,4.17-0.23,5.32-0.68c1.15-0.46,2.05-1.18,2.69-2.19
			c0.64-1,0.97-2.12,0.97-3.36c0-1.21-0.33-2.3-0.98-3.29c-0.65-0.99-1.51-1.69-2.57-2.11s-2.82-0.64-5.29-0.64H260.42z"/>
		<path class="st46" d="M334.62,286.86l-2.79,2.64c-2-1.97-4.2-3.46-6.58-4.48c-2.39-1.02-4.71-1.53-6.97-1.53
			c-2.82,0-5.5,0.69-8.05,2.08c-2.55,1.38-4.52,3.26-5.92,5.63c-1.4,2.37-2.1,4.87-2.1,7.51c0,2.7,0.72,5.27,2.17,7.71
			c1.45,2.44,3.45,4.35,6.01,5.74c2.56,1.39,5.36,2.09,8.4,2.09c3.7,0,6.82-1.04,9.38-3.13c2.56-2.08,4.07-4.79,4.54-8.11h-11.46
			v-3.47h15.49c-0.03,5.55-1.68,9.96-4.95,13.23s-7.63,4.9-13.11,4.9c-6.65,0-11.91-2.26-15.78-6.79
			c-2.98-3.49-4.47-7.52-4.47-12.09c0-3.4,0.85-6.57,2.57-9.5c1.71-2.93,4.06-5.22,7.04-6.88c2.98-1.65,6.35-2.48,10.11-2.48
			c3.05,0,5.91,0.55,8.6,1.65S332.07,284.43,334.62,286.86z"/>
		<path class="st46" d="M343.34,280.83h7.16c3.99,0,6.69,0.16,8.11,0.49c2.13,0.49,3.87,1.54,5.2,3.14s2,3.58,2,5.93
			c0,1.96-0.46,3.68-1.38,5.16s-2.24,2.61-3.95,3.36c-1.71,0.76-4.07,1.15-7.08,1.16l12.92,16.69h-4.44l-12.92-16.69h-2.03v16.69
			h-3.59V280.83z M346.93,284.34v12.22l6.19,0.05c2.4,0,4.17-0.23,5.32-0.68c1.15-0.46,2.05-1.18,2.69-2.19s0.97-2.12,0.97-3.36
			c0-1.21-0.33-2.3-0.98-3.29c-0.65-0.99-1.51-1.69-2.57-2.11c-1.06-0.42-2.82-0.64-5.29-0.64H346.93z"/>
		<path class="st46" d="M390.17,279.92c5.44,0,10,1.82,13.67,5.45c3.67,3.63,5.5,8.1,5.5,13.41c0,5.26-1.83,9.72-5.49,13.39
			c-3.66,3.66-8.12,5.5-13.38,5.5c-5.33,0-9.83-1.82-13.49-5.47s-5.5-8.06-5.5-13.24c0-3.45,0.83-6.65,2.51-9.6s3.95-5.26,6.83-6.93
			C383.7,280.76,386.82,279.92,390.17,279.92z M390.33,283.42c-2.66,0-5.18,0.69-7.56,2.08s-4.24,3.25-5.58,5.6
			c-1.34,2.35-2.01,4.96-2.01,7.85c0,4.27,1.48,7.88,4.44,10.82c2.96,2.94,6.53,4.41,10.71,4.41c2.79,0,5.37-0.68,7.74-2.03
			c2.37-1.35,4.23-3.2,5.55-5.55c1.33-2.35,2-4.96,2-7.83c0-2.85-0.67-5.43-2-7.74c-1.33-2.31-3.2-4.15-5.62-5.54
			C395.6,284.11,393.04,283.42,390.33,283.42z"/>
		<path class="st46" d="M416.22,280.83h3.59v21.7c0,2.57,0.05,4.18,0.15,4.81c0.18,1.42,0.59,2.6,1.25,3.55
			c0.65,0.95,1.65,1.75,3,2.39s2.71,0.96,4.08,0.96c1.19,0,2.33-0.25,3.42-0.76c1.09-0.5,2-1.21,2.74-2.1
			c0.73-0.9,1.27-1.98,1.61-3.25c0.24-0.91,0.37-2.79,0.37-5.62v-21.7h3.59v21.7c0,3.21-0.31,5.8-0.94,7.78
			c-0.63,1.98-1.88,3.7-3.76,5.17c-1.88,1.47-4.16,2.2-6.83,2.2c-2.9,0-5.38-0.69-7.45-2.08c-2.07-1.38-3.45-3.22-4.15-5.5
			c-0.44-1.4-0.66-3.92-0.66-7.57V280.83z"/>
		<path class="st46" d="M448.38,280.83h7.16c4.1,0,6.87,0.18,8.31,0.54c2.05,0.5,3.73,1.54,5.03,3.12c1.3,1.57,1.96,3.55,1.96,5.92
			c0,2.39-0.64,4.37-1.91,5.92s-3.02,2.6-5.25,3.14c-1.63,0.39-4.67,0.59-9.14,0.59h-2.57v16.71h-3.59V280.83z M451.98,284.34v12.19
			l6.08,0.07c2.46,0,4.26-0.22,5.4-0.67s2.04-1.17,2.69-2.17c0.65-1,0.98-2.12,0.98-3.35c0-1.2-0.33-2.3-0.98-3.3
			c-0.65-1-1.51-1.71-2.58-2.13c-1.07-0.42-2.81-0.63-5.24-0.63H451.98z"/>
		<path class="st46" d="M64.26,371.8l5.15-35.94h0.58l14.61,29.49l14.47-29.49h0.58l5.17,35.94h-3.52l-3.55-25.7l-12.71,25.7h-0.92
			l-12.86-25.9l-3.53,25.9H64.26z"/>
		<path class="st46" d="M110.92,335.86h3.59v35.94h-3.59V335.86z"/>
		<path class="st46" d="M122.29,335.86h3.59v32.47h13.83v3.47h-17.42V335.86z"/>
		<path class="st46" d="M144.98,335.86h20.6v3.52h-17v11.26h16.86v3.52h-16.86v14.12h16.86v3.52h-20.45V335.86z"/>
		<path class="st46" d="M171.35,371.8v-35.94h0.78l23.92,27.55v-27.55h3.54v35.94h-0.81l-23.72-27.21v27.21H171.35z"/>
		<path class="st46" d="M207.38,335.86h3.59v35.94h-3.59V335.86z"/>
		<path class="st46" d="M235.87,334.96c5.44,0,10,1.82,13.67,5.45c3.67,3.63,5.5,8.1,5.5,13.41c0,5.26-1.83,9.72-5.49,13.39
			c-3.66,3.66-8.12,5.5-13.38,5.5c-5.33,0-9.83-1.82-13.5-5.47s-5.5-8.06-5.5-13.24c0-3.45,0.84-6.65,2.51-9.6s3.95-5.26,6.83-6.93
			C229.39,335.79,232.51,334.96,235.87,334.96z M236.03,338.45c-2.66,0-5.18,0.69-7.56,2.08c-2.38,1.39-4.24,3.25-5.58,5.6
			c-1.34,2.35-2.01,4.96-2.01,7.85c0,4.27,1.48,7.88,4.44,10.82s6.53,4.41,10.71,4.41c2.79,0,5.37-0.68,7.74-2.03
			s4.23-3.2,5.55-5.55c1.33-2.35,1.99-4.96,1.99-7.83c0-2.85-0.67-5.43-1.99-7.74s-3.2-4.15-5.62-5.54
			C241.3,339.15,238.73,338.45,236.03,338.45z"/>
		<path class="st46" d="M271.48,365.11l3.05-1.83c2.15,3.96,4.63,5.94,7.45,5.94c1.21,0,2.34-0.28,3.4-0.84
			c1.06-0.56,1.86-1.32,2.42-2.26c0.55-0.94,0.83-1.95,0.83-3c0-1.21-0.41-2.39-1.22-3.54c-1.12-1.6-3.18-3.52-6.16-5.77
			c-3-2.26-4.86-3.9-5.59-4.91c-1.27-1.69-1.91-3.53-1.91-5.5c0-1.56,0.37-2.99,1.12-4.28c0.75-1.29,1.8-2.3,3.16-3.04
			c1.36-0.74,2.84-1.11,4.43-1.11c1.69,0,3.28,0.42,4.75,1.26c1.47,0.84,3.03,2.38,4.68,4.63l-2.93,2.22
			c-1.35-1.79-2.5-2.97-3.46-3.54c-0.95-0.57-1.99-0.85-3.11-0.85c-1.45,0-2.63,0.44-3.55,1.32c-0.92,0.88-1.38,1.96-1.38,3.25
			c0,0.78,0.16,1.54,0.49,2.27c0.33,0.73,0.92,1.53,1.78,2.39c0.47,0.46,2.02,1.65,4.64,3.59c3.11,2.3,5.24,4.34,6.4,6.13
			c1.16,1.79,1.73,3.59,1.73,5.4c0,2.61-0.99,4.87-2.97,6.79s-4.39,2.88-7.22,2.88c-2.18,0-4.16-0.58-5.94-1.75
			S272.98,367.84,271.48,365.11z"/>
		<path class="st46" d="M314.35,335.86l16.76,35.94h-3.88l-5.65-11.83h-15.48l-5.6,11.83h-4.01l16.98-35.94H314.35z M313.89,343.5
			l-6.16,13.01h12.29L313.89,343.5z"/>
		<path class="st46" d="M339.43,366.43c0.83,0,1.54,0.29,2.12,0.88c0.59,0.59,0.88,1.3,0.88,2.15c0,0.83-0.29,1.54-0.88,2.14
			c-0.59,0.59-1.29,0.89-2.12,0.89c-0.83,0-1.54-0.3-2.13-0.89c-0.59-0.59-0.88-1.31-0.88-2.14c0-0.85,0.29-1.56,0.88-2.15
			C337.89,366.72,338.6,366.43,339.43,366.43z"/>
		<path class="st46" d="M363.03,371.8v-35.94h7.45c5.38,0,9.28,0.43,11.7,1.29c3.49,1.22,6.21,3.34,8.17,6.35
			c1.96,3.01,2.94,6.61,2.94,10.77c0,3.6-0.78,6.77-2.33,9.5s-3.58,4.76-6.06,6.06c-2.48,1.3-5.97,1.95-10.44,1.95H363.03z
			 M366.48,368.41h4.15c4.97,0,8.41-0.31,10.33-0.93c2.7-0.88,4.83-2.46,6.38-4.75c1.55-2.29,2.32-5.08,2.32-8.39
			c0-3.47-0.84-6.43-2.52-8.88c-1.68-2.46-4.02-4.14-7.01-5.05c-2.25-0.68-5.95-1.03-11.12-1.03h-2.54V368.41z"/>
		<path class="st46" d="M399.84,335.86h20.6v3.52h-17v11.26h16.86v3.52h-16.86v14.12h16.86v3.52h-20.45V335.86z"/>
		<path class="st46" d="M473.06,342.53l-2.83,2.17c-1.56-2.04-3.44-3.58-5.63-4.63c-2.19-1.05-4.6-1.58-7.22-1.58
			c-2.87,0-5.52,0.69-7.96,2.06c-2.44,1.38-4.34,3.22-5.68,5.55c-1.34,2.32-2.02,4.93-2.02,7.83c0,4.38,1.5,8.04,4.51,10.97
			c3,2.93,6.79,4.4,11.37,4.4c5.03,0,9.24-1.97,12.63-5.91l2.83,2.15c-1.79,2.28-4.03,4.04-6.71,5.29s-5.67,1.87-8.98,1.87
			c-6.29,0-11.25-2.09-14.88-6.28c-3.05-3.53-4.57-7.8-4.57-12.8c0-5.26,1.84-9.69,5.53-13.28c3.69-3.59,8.31-5.39,13.86-5.39
			c3.36,0,6.38,0.66,9.09,1.99C469.12,338.28,471.34,340.14,473.06,342.53z"/>
		<path class="st46" d="M483.02,366.43c0.83,0,1.54,0.29,2.12,0.88c0.59,0.59,0.88,1.3,0.88,2.15c0,0.83-0.29,1.54-0.88,2.14
			c-0.59,0.59-1.29,0.89-2.12,0.89c-0.83,0-1.54-0.3-2.13-0.89c-0.59-0.59-0.88-1.31-0.88-2.14c0-0.85,0.29-1.56,0.88-2.15
			C481.48,366.72,482.19,366.43,483.02,366.43z"/>
		<path class="st46" d="M490.49,335.86h3.91l11.91,27.77l12.11-27.77h3.91l-15.64,35.94h-0.78L490.49,335.86z"/>
		<path class="st46" d="M531.1,366.43c0.83,0,1.54,0.29,2.12,0.88c0.59,0.59,0.88,1.3,0.88,2.15c0,0.83-0.29,1.54-0.88,2.14
			c-0.59,0.59-1.29,0.89-2.12,0.89c-0.83,0-1.54-0.3-2.13-0.89c-0.59-0.59-0.88-1.31-0.88-2.14c0-0.85,0.29-1.56,0.88-2.15
			C529.56,366.72,530.27,366.43,531.1,366.43z"/>
	</g>
</g>
</svg>
